<?xml version="1.0" encoding="UTF-8"?>
<!-- Created with Inkscape (http://www.inkscape.org/) -->
<svg version="1.1" viewBox="0 0 119.78 116.01" xmlns="http://www.w3.org/2000/svg"><g transform="translate(-63.205 127.88)"><path d="m99.504-127.88a1.6261 1.6261 0 00-.69143.21342l-34.795 20.088a1.6261 1.6261 0 00-.38861.32608 1.6261 1.6261 0 00-.091985.11989 1.6261 1.6261 0 00-.18707.32453 1.6261 1.6261 0 00-.056844.13694 1.6261 1.6261 0 00-.088367.50075v45.48a1.6261 1.6261 0 00.091467.51935 1.6261 1.6261 0 00.073898.15348 1.6261 1.6261 0 00.17932.31006 1.6261 1.6261 0 00.13488.14521 1.6261 1.6261 0 00.25218.21239 1.6261 1.6261 0 00.081132.067696l81.728 47.187a1.6261 1.6261 0 00.17466.080099 1.6261 1.6261 0 00.06822.031006 1.6261 1.6261 0 00.41289.094051 1.6261 1.6261 0 00.0894.004134 1.6261 1.6261 0 00.40618-.029972 1.6261 1.6261 0 00.031-.004651 1.6261 1.6261 0 00.39946-.1571 1.6261 1.6261 0 00.04496-.01757l34.795-20.09a1.6261 1.6261 0 00.81236-1.4082v-45.48a1.6261 1.6261 0 00-2.4396-1.4082l-33.981 19.62-45.307-26.159v-39.239a1.6261 1.6261 0 00-1.7482-1.6216zm-1.5038 4.438v34.545l-29.917-17.273 29.917-17.272zm-31.543 20.088 31.543 18.211v3.4251l-31.543 18.211v-39.848zm34.795 20.089 43.682 25.22v41.727l-76.85-44.371 32.356-18.68a1.6261 1.6261 0 00.81287-1.4082v-2.4872zm78.476 7.0089v41.725l-31.543 18.213v-41.727l31.543-18.211z" color="#000000" fill-rule="evenodd" stroke-linejoin="round"/></g></svg>
