<?xml version="1.0" encoding="UTF-8"?>
<!-- Created with Inkscape (http://www.inkscape.org/) -->
<svg version="1.1" viewBox="0 0 119.78 95.918" xmlns="http://www.w3.org/2000/svg"><g transform="translate(-63.267 111.94)"><path d="m64.611-111.91a1.6261 1.6261 0 00-.53072.19327 1.6261 1.6261 0 00-.81235 1.4082v45.48a1.6261 1.6261 0 00.81235 1.4082l81.728 47.187a1.6261 1.6261 0 00.17467.080099 1.6261 1.6261 0 00.06873.031006 1.6261 1.6261 0 00.40979.094051 1.6261 1.6261 0 00.0956.004651 1.6261 1.6261 0 00.40308-.03049 1.6261 1.6261 0 00.03049-.00465 1.6261 1.6261 0 00.39842-.15658 1.6261 1.6261 0 00.04651-.018087l34.795-20.09a1.6261 1.6261 0 00.81235-1.4082v-45.48a1.6261 1.6261 0 00-2.4391-1.4082l-33.982 19.62-80.915-46.718a1.6261 1.6261 0 00-1.0961-.19327zm1.9089 4.4178 78.476 45.309v41.726l-78.476-45.31v-41.725zm113.27 27.098v41.725l-31.543 18.213v-41.726l31.543-18.211z" color="#000000" fill-rule="evenodd" stroke-linejoin="round"/></g></svg>
