<?xml version="1.0" encoding="UTF-8"?>
<!-- Created with Inkscape (http://www.inkscape.org/) -->
<svg version="1.1" viewBox="0 0 84.98 116.01" xmlns="http://www.w3.org/2000/svg"><g transform="translate(-77.201 127.66)"><path d="m113.5-127.65a1.6261 1.6261 0 00-.69143.21342l-34.795 20.09a1.6261 1.6261 0 00-.38757.32505 1.6261 1.6261 0 00-.09198.12041 1.6261 1.6261 0 00-.18707.32297 1.6261 1.6261 0 00-.05736.13953 1.6261 1.6261 0 00-.08837.49816v45.48a1.6261 1.6261 0 00.09147.51883 1.6261 1.6261 0 00.077.15916 1.6261 1.6261 0 00.17363.30127 1.6261 1.6261 0 00.14314.154 1.6261 1.6261 0 00.24081.20309 1.6261 1.6261 0 00.0863.07235l81.729 47.187a1.6261 1.6261 0 002.4391-1.4082v-45.48a1.6261 1.6261 0 00-.81442-1.4082l-46.119-26.627v-39.24a1.6261 1.6261 0 00-1.7477-1.6216zm-1.5043 4.438v34.547l-29.919-17.274zm-31.543 20.088 31.543 18.211v3.4256l-31.543 18.213zm34.795 20.089 43.682 25.22v41.727l-76.853-44.37 32.359-18.681a1.6261 1.6261 0 00.81236-1.4082z" color="#000000" fill-rule="evenodd" stroke-linejoin="round" style="-inkscape-stroke:none"/></g></svg>
