<?xml version="1.0" encoding="UTF-8"?>
<!-- Created with Inkscape (http://www.inkscape.org/) -->
<svg version="1.1" viewBox="0 0 119.78 116.01" xmlns="http://www.w3.org/2000/svg"><g transform="translate(-62.967 128.65)"><path d="m99.107-128.63a1.6261 1.6261 0 00-.53072.19275 1.6261 1.6261 0 00-.81235 1.4082v37.362l-32.357-18.682a1.6261 1.6261 0 00-2.4396 1.4082v45.481a1.6261 1.6261 0 00.81235 1.4082l81.73 47.187a1.6261 1.6261 0 00.09508.034624 1.6261 1.6261 0 00.32091.11627 1.6261 1.6261 0 00.1819.041342 1.6261 1.6261 0 00.37569 0 1.6261 1.6261 0 00.15296-.011369 1.6261 1.6261 0 00.49868-.18087l34.795-20.09a1.6261 1.6261 0 00.04082-.031005 1.6261 1.6261 0 00.25993-.19947 1.6261 1.6261 0 00.04548-.038758 1.6261 1.6261 0 00.23254-.30334 1.6261 1.6261 0 00.04134-.080099 1.6261 1.6261 0 00.11524-.27699 1.6261 1.6261 0 00.02946-.10077 1.6261 1.6261 0 00.04961-.37775v-45.48a1.6261 1.6261 0 00-.09509-.53847 1.6261 1.6261 0 00-.01498-.038757 1.6261 1.6261 0 00-.26097-.4501 1.6261 1.6261 0 00-.02222-.028422 1.6261 1.6261 0 00-.43408-.36018l-81.715-47.178a1.6261 1.6261 0 00-1.0945-.19275zm1.9089 4.4173 76.85 44.37-31.543 18.212-45.307-26.159v-36.423zm-34.797 20.088 31.545 18.212v4.3636a1.6261 1.6261 0 00.81235 1.4082l46.119 26.627v36.424l-78.476-45.309v-41.726zm34.797 20.09 43.68 25.219v1.5477l-43.68-25.218v-1.5487zm78.476 7.0078v39.848l-31.545-18.212v-3.4251l31.545-18.211zm-31.545 25.391 29.918 17.273-29.918 17.274v-34.547z" color="#000000" fill-rule="evenodd" stroke-linejoin="round"/></g></svg>
